<svg width="26" height="24" viewBox="0 0 26 24" fill="none" xmlns="http://www.w3.org/2000/svg">
<g clip-path="url(#clip0_482_1265)">
<path d="M25.6625 12C25.6625 5.37258 20.0297 0 13.0812 0C6.13281 0 0.5 5.37258 0.5 12C0.5 17.9895 5.10076 22.954 11.1154 23.8542V15.4688H7.92097V12H11.1154V9.35625C11.1154 6.34875 12.9938 4.6875 15.8676 4.6875C17.2436 4.6875 18.6838 4.92188 18.6838 4.92188V7.875H17.0974C15.5346 7.875 15.0471 8.80008 15.0471 9.75V12H18.5364L17.9786 15.4688H15.0471V23.8542C21.0617 22.954 25.6625 17.9895 25.6625 12Z" fill="white"/>
</g>
<defs>
<clipPath id="clip0_482_1265">
<rect width="25.1625" height="24" fill="white" transform="translate(0.5)"/>
</clipPath>
</defs>
</svg>
