<svg width="26" height="24" viewBox="0 0 26 24" fill="none" xmlns="http://www.w3.org/2000/svg">
<g clip-path="url(#clip0_482_1274)">
<path d="M23.7264 0H2.28421C1.25707 0 0.426514 0.773438 0.426514 1.72969V22.2656C0.426514 23.2219 1.25707 24 2.28421 24H23.7264C24.7535 24 25.589 23.2219 25.589 22.2703V1.72969C25.589 0.773438 24.7535 0 23.7264 0ZM7.89172 20.4516H4.15666V8.99531H7.89172V20.4516ZM6.02419 7.43438C4.82504 7.43438 3.85687 6.51094 3.85687 5.37187C3.85687 4.23281 4.82504 3.30937 6.02419 3.30937C7.21842 3.30937 8.18659 4.23281 8.18659 5.37187C8.18659 6.50625 7.21842 7.43438 6.02419 7.43438ZM21.8687 20.4516H18.1386V14.8828C18.1386 13.5562 18.114 11.8453 16.1973 11.8453C14.2561 11.8453 13.9612 13.2937 13.9612 14.7891V20.4516H10.236V8.99531H13.8137V10.5609H13.8629C14.3593 9.66094 15.5781 8.70938 17.3915 8.70938C21.1708 8.70938 21.8687 11.0813 21.8687 14.1656V20.4516Z" fill="white"/>
</g>
<defs>
<clipPath id="clip0_482_1274">
<rect width="25.1625" height="24" fill="white" transform="translate(0.426514)"/>
</clipPath>
</defs>
</svg>
