<svg width="26" height="24" viewBox="0 0 26 24" fill="none" xmlns="http://www.w3.org/2000/svg">
<g clip-path="url(#clip0_482_1269)">
<path d="M13.0324 2.16094C16.394 2.16094 16.7921 2.175 18.1141 2.23125C19.3427 2.28281 20.0062 2.47969 20.4485 2.64375C21.0333 2.85938 21.456 3.12188 21.8934 3.53906C22.3357 3.96094 22.606 4.35938 22.832 4.91719C23.004 5.33906 23.2105 5.97656 23.2645 7.14375C23.3235 8.40937 23.3382 8.78906 23.3382 11.9906C23.3382 15.1969 23.3235 15.5766 23.2645 16.8375C23.2105 18.0094 23.004 18.6422 22.832 19.0641C22.606 19.6219 22.3308 20.025 21.8934 20.4422C21.451 20.8641 21.0333 21.1219 20.4485 21.3375C20.0062 21.5016 19.3378 21.6984 18.1141 21.75C16.7871 21.8062 16.3891 21.8203 13.0324 21.8203C9.67087 21.8203 9.27279 21.8062 7.95078 21.75C6.72214 21.6984 6.05867 21.5016 5.61636 21.3375C5.03153 21.1219 4.60888 20.8594 4.17149 20.4422C3.72918 20.0203 3.45888 19.6219 3.23281 19.0641C3.0608 18.6422 2.85439 18.0047 2.80033 16.8375C2.74135 15.5719 2.72661 15.1922 2.72661 11.9906C2.72661 8.78438 2.74135 8.40469 2.80033 7.14375C2.85439 5.97187 3.0608 5.33906 3.23281 4.91719C3.45888 4.35938 3.73409 3.95625 4.17149 3.53906C4.6138 3.11719 5.03153 2.85938 5.61636 2.64375C6.05867 2.47969 6.72705 2.28281 7.95078 2.23125C9.27279 2.175 9.67087 2.16094 13.0324 2.16094ZM13.0324 0C9.61681 0 9.18924 0.0140625 7.84757 0.0703125C6.51081 0.126563 5.59179 0.332812 4.79563 0.628125C3.96508 0.9375 3.2623 1.34531 2.56443 2.01562C1.86165 2.68125 1.43408 3.35156 1.10972 4.13906C0.800105 4.90313 0.583865 5.775 0.52489 7.05C0.465916 8.33437 0.451172 8.74219 0.451172 12C0.451172 15.2578 0.465916 15.6656 0.52489 16.9453C0.583865 18.2203 0.800105 19.0969 1.10972 19.8563C1.43408 20.6484 1.86165 21.3188 2.56443 21.9844C3.2623 22.65 3.96508 23.0625 4.79072 23.3672C5.59179 23.6625 6.5059 23.8687 7.84266 23.925C9.18433 23.9812 9.61189 23.9953 13.0275 23.9953C16.4431 23.9953 16.8707 23.9812 18.2124 23.925C19.5491 23.8687 20.4681 23.6625 21.2643 23.3672C22.0899 23.0625 22.7927 22.65 23.4906 21.9844C24.1885 21.3188 24.6209 20.6484 24.9404 19.8609C25.25 19.0969 25.4662 18.225 25.5252 16.95C25.5842 15.6703 25.5989 15.2625 25.5989 12.0047C25.5989 8.74688 25.5842 8.33906 25.5252 7.05938C25.4662 5.78438 25.25 4.90781 24.9404 4.14844C24.6308 3.35156 24.2032 2.68125 23.5004 2.01562C22.8025 1.35 22.0998 0.9375 21.2741 0.632812C20.4731 0.3375 19.5589 0.13125 18.2222 0.075C16.8756 0.0140625 16.448 0 13.0324 0Z" fill="white"/>
<path d="M13.0325 5.83594C9.4645 5.83594 6.56982 8.59688 6.56982 12C6.56982 15.4031 9.4645 18.1641 13.0325 18.1641C16.6004 18.1641 19.4951 15.4031 19.4951 12C19.4951 8.59688 16.6004 5.83594 13.0325 5.83594ZM13.0325 15.9984C10.7177 15.9984 8.84035 14.2078 8.84035 12C8.84035 9.79219 10.7177 8.00156 13.0325 8.00156C15.3472 8.00156 17.2246 9.79219 17.2246 12C17.2246 14.2078 15.3472 15.9984 13.0325 15.9984Z" fill="white"/>
<path d="M21.2595 5.59238C21.2595 6.38926 20.5813 7.03145 19.7507 7.03145C18.9152 7.03145 18.2419 6.38457 18.2419 5.59238C18.2419 4.79551 18.9202 4.15332 19.7507 4.15332C20.5813 4.15332 21.2595 4.8002 21.2595 5.59238Z" fill="white"/>
</g>
<defs>
<clipPath id="clip0_482_1269">
<rect width="25.1625" height="24" fill="white" transform="translate(0.451172)"/>
</clipPath>
</defs>
</svg>
