<svg width="26" height="24" viewBox="0 0 26 24" fill="none" xmlns="http://www.w3.org/2000/svg">
<g clip-path="url(#clip0_482_1267)">
<path d="M8.39121 21.7497C17.8842 21.7497 23.0779 14.2465 23.0779 7.74162C23.0779 7.53068 23.0729 7.31505 23.0631 7.10412C24.0734 6.40722 24.9453 5.54401 25.6378 4.55505C24.6969 4.95436 23.6979 5.21514 22.6749 5.32849C23.752 4.71266 24.5585 3.74523 24.9449 2.60552C23.9316 3.17831 22.8234 3.58237 21.6679 3.80037C20.8893 3.01132 19.8599 2.48887 18.7388 2.31381C17.6177 2.13874 16.4674 2.32081 15.4656 2.83185C14.4639 3.3429 13.6666 4.15446 13.1969 5.14107C12.7273 6.12767 12.6115 7.23437 12.8674 8.29005C10.8155 8.19185 8.80826 7.68346 6.97564 6.79785C5.14301 5.91225 3.52597 4.66919 2.22934 3.14927C1.57033 4.233 1.36867 5.5154 1.66535 6.73585C1.96203 7.95629 2.73479 9.0232 3.82657 9.71974C3.00693 9.69492 2.20524 9.48444 1.48774 9.10568V9.16662C1.487 10.3039 1.89922 11.4063 2.65432 12.2865C3.40942 13.1667 4.46079 13.7703 5.62972 13.9947C4.87045 14.1929 4.07356 14.2218 3.30072 14.0791C3.63057 15.0572 4.27233 15.9126 5.13645 16.5261C6.00057 17.1395 7.04393 17.4804 8.12091 17.501C6.29252 18.8709 4.03392 19.6139 1.70889 19.6104C1.29657 19.6098 0.884651 19.5857 0.475342 19.5382C2.83732 20.9835 5.58493 21.7511 8.39121 21.7497Z" fill="white"/>
</g>
<defs>
<clipPath id="clip0_482_1267">
<rect width="25.1625" height="24" fill="white" transform="translate(0.475342)"/>
</clipPath>
</defs>
</svg>
