<svg width="33" height="31" viewBox="0 0 33 31" fill="none" xmlns="http://www.w3.org/2000/svg">
<path d="M28.2507 4.54586C25.1876 1.62414 21.1147 0.0151367 16.7828 0.0151367C12.451 0.0151367 8.37806 1.62414 5.315 4.54586C2.25175 7.4674 0.564819 11.3522 0.564819 15.4839C0.564819 19.6156 2.25175 23.5004 5.315 26.4219C8.37806 29.3436 12.451 30.9526 16.7828 30.9526C21.1147 30.9526 25.1876 29.3436 28.2507 26.4219C31.3139 23.5004 33.0009 19.6156 33.0009 15.4839C33.0009 11.3522 31.3139 7.4674 28.2507 4.54586ZM16.7828 28.5356C9.23766 28.5356 3.09888 22.6805 3.09888 15.4839C3.09888 8.28729 9.23766 2.43213 16.7828 2.43213C24.328 2.43213 30.4668 8.28729 30.4668 15.4839C30.4668 22.6805 24.328 28.5356 16.7828 28.5356ZM19.2116 16.1741L23.8216 20.5486L22.0343 22.2624L17.369 17.835C17.1808 17.8778 16.9848 17.9009 16.7828 17.9009C15.3834 17.9009 14.2488 16.8187 14.2488 15.4839C14.2488 14.6145 14.7302 13.8526 15.4525 13.4268V4.90955H16.7195H17.9865V13.3566C18.7786 13.7654 19.3169 14.5645 19.3169 15.4839C19.3169 15.7237 19.2797 15.9552 19.2116 16.1741Z" fill="#E2E6E9"/>
</svg>
