<svg width="43" height="40" viewBox="0 0 43 40" fill="none" xmlns="http://www.w3.org/2000/svg">
<ellipse cx="21.2173" cy="20" rx="20.9688" ry="20" fill="#61C4A1"/>
<path d="M29.3531 23.9203C27.994 22.8869 26.6146 22.261 25.2721 23.2928L24.4705 23.9164C23.884 24.3691 22.7935 26.4842 18.5773 22.1728C14.362 17.8668 16.8705 17.1963 17.4579 16.7475L18.2639 16.1231C19.5993 15.089 19.0954 13.7871 18.1322 12.447L17.551 11.6353C16.5834 10.2983 15.5298 9.4202 14.1908 10.4528L13.4673 11.0148C12.8756 11.398 11.2214 12.6437 10.8202 15.0101C10.3373 17.8496 11.8606 21.1011 15.3507 24.6688C18.8364 28.238 22.2492 30.0308 25.482 29.9996C28.1687 29.9738 29.7913 28.6923 30.2987 28.2263L31.0249 27.6636C32.3603 26.6317 31.5306 25.5812 30.1706 24.5455L29.3531 23.9203Z" fill="white"/>
</svg>
